<svg width="37" height="37" viewBox="0 0 37 37" fill="none" xmlns="http://www.w3.org/2000/svg">
<path d="M18.5 33.9167C27.0144 33.9167 33.9167 27.0144 33.9167 18.5C33.9167 9.98562 27.0144 3.08334 18.5 3.08334C9.98565 3.08334 3.08337 9.98562 3.08337 18.5C3.08337 27.0144 9.98565 33.9167 18.5 33.9167Z" stroke="#F9F9F9" stroke-width="2.3125" stroke-linecap="round" stroke-linejoin="round"/>
<path d="M21.5834 8.84609C21.5834 8.84609 19.8644 9.61693 18.6573 9.02955C17.1835 8.31113 15.7235 5.31414 18.6419 3.08334" stroke="#F9F9F9" stroke-width="2.3125" stroke-linecap="round" stroke-linejoin="round"/>
<path d="M12.3472 13.875H12.3334M24.6667 13.875H24.6528" stroke="#F9F9F9" stroke-width="3.08333" stroke-linecap="round" stroke-linejoin="round"/>
<path d="M12.3334 23.125C13.0514 24.0823 13.9824 24.8594 15.0528 25.3945C16.1231 25.9297 17.3034 26.2083 18.5 26.2083C19.6967 26.2083 20.877 25.9297 21.9473 25.3945C23.0177 24.8594 23.9487 24.0823 24.6667 23.125" stroke="#F9F9F9" stroke-width="2.3125" stroke-linecap="round" stroke-linejoin="round"/>
</svg>
