<svg width="37" height="37" viewBox="0 0 37 37" fill="none" xmlns="http://www.w3.org/2000/svg">
<path d="M18.5 34.6875C9.57375 34.6875 2.3125 27.4263 2.3125 18.5C2.3125 9.57375 9.57375 2.3125 18.5 2.3125C27.4263 2.3125 34.6875 9.57375 34.6875 18.5C34.6875 27.4263 27.4263 34.6875 18.5 34.6875ZM18.5 4.625C10.8456 4.625 4.625 10.8456 4.625 18.5C4.625 26.1544 10.8456 32.375 18.5 32.375C26.1544 32.375 32.375 26.1544 32.375 18.5C32.375 10.8456 26.1544 4.625 18.5 4.625Z" fill="#F9F9F9"/>
<path d="M18.5 26.5938C17.8525 26.5938 17.3438 26.085 17.3438 25.4375V11.5625C17.3438 10.915 17.8525 10.4062 18.5 10.4062C19.1475 10.4062 19.6562 10.915 19.6562 11.5625V25.4375C19.6562 26.085 19.1475 26.5938 18.5 26.5938Z" fill="#F9F9F9"/>
<path d="M25.4375 19.6562H11.5625C10.915 19.6562 10.4062 19.1475 10.4062 18.5C10.4062 17.8525 10.915 17.3438 11.5625 17.3438H25.4375C26.085 17.3438 26.5938 17.8525 26.5938 18.5C26.5938 19.1475 26.085 19.6562 25.4375 19.6562Z" fill="#F9F9F9"/>
</svg>
