<svg width="37" height="37" viewBox="0 0 37 37" fill="none" xmlns="http://www.w3.org/2000/svg">
<path d="M27.7501 21.1429C28.8014 21.1429 29.8098 21.5605 30.5532 22.304C31.2967 23.0474 31.7143 24.0558 31.7143 25.1072V26.052C31.7143 30.7787 26.1511 34.3572 18.5001 34.3572C10.849 34.3572 5.28577 30.9651 5.28577 26.052V25.1072C5.28577 24.0558 5.70343 23.0474 6.44688 22.304C7.19033 21.5605 8.19866 21.1429 9.25005 21.1429H27.7501ZM27.7501 23.125H9.25005C8.75752 23.125 8.28263 23.3084 7.91791 23.6394C7.55319 23.9704 7.32477 24.4253 7.27716 24.9156L7.26791 25.1072V26.052C7.26791 29.5855 11.7462 32.375 18.5001 32.375C25.0094 32.375 29.5406 29.5934 29.7269 26.2647L29.7322 26.052V25.1072C29.7322 24.6146 29.5488 24.1397 29.2178 23.775C28.8868 23.4103 28.4319 23.1819 27.9417 23.1343L27.7501 23.125ZM18.5001 2.64288C19.5412 2.64288 20.5722 2.84796 21.5342 3.24641C22.4961 3.64486 23.3702 4.22887 24.1064 4.96511C24.8426 5.70134 25.4266 6.57538 25.8251 7.53732C26.2235 8.49926 26.4286 9.53026 26.4286 10.5715C26.4286 11.6126 26.2235 12.6436 25.8251 13.6056C25.4266 14.5675 24.8426 15.4416 24.1064 16.1778C23.3702 16.914 22.4961 17.4981 21.5342 17.8965C20.5722 18.2949 19.5412 18.5 18.5001 18.5C16.3973 18.5 14.3806 17.6647 12.8937 16.1778C11.4068 14.6909 10.5715 12.6742 10.5715 10.5715C10.5715 8.46867 11.4068 6.452 12.8937 4.96511C14.3806 3.47821 16.3973 2.64288 18.5001 2.64288ZM18.5001 4.62503C16.923 4.62503 15.4105 5.25152 14.2953 6.36669C13.1801 7.48187 12.5536 8.99436 12.5536 10.5715C12.5536 12.1485 13.1801 13.661 14.2953 14.7762C15.4105 15.8914 16.923 16.5179 18.5001 16.5179C20.0771 16.5179 21.5896 15.8914 22.7048 14.7762C23.82 13.661 24.4465 12.1485 24.4465 10.5715C24.4465 8.99436 23.82 7.48187 22.7048 6.36669C21.5896 5.25152 20.0771 4.62503 18.5001 4.62503Z" fill="#F9F9F9"/>
</svg>
