<svg width="37" height="37" viewBox="0 0 37 37" fill="none" xmlns="http://www.w3.org/2000/svg">
<path d="M32.0603 10.7394L31.3174 9.45202C30.7564 8.47749 30.4752 7.99022 29.9969 7.79622C29.5202 7.60071 28.9803 7.75561 27.899 8.06091L26.0642 8.57825C25.3739 8.73766 24.6505 8.64743 24.0219 8.32259L23.5151 8.03083C22.9751 7.68481 22.5599 7.17525 22.33 6.57655L21.8277 5.07565C21.4968 4.08308 21.3314 3.58679 20.9389 3.30405C20.5464 3.01831 20.023 3.01831 18.9793 3.01831H17.3025C16.2587 3.01831 15.7369 3.01831 15.3429 3.30405C14.9503 3.58679 14.7864 4.08308 14.4556 5.07565L13.9533 6.57655C13.723 7.17547 13.3072 7.68505 12.7667 8.03083L12.2599 8.32409C11.6312 8.64743 10.9063 8.73766 10.2176 8.57975L8.38279 8.06091C7.30148 7.75561 6.76158 7.60222 6.28484 7.79622C5.8066 7.99022 5.52537 8.47749 4.96441 9.45052L4.22298 10.7394C3.69662 11.6537 3.43343 12.1094 3.48457 12.5952C3.5357 13.0824 3.88761 13.4735 4.59144 14.257L6.14197 15.991C6.52095 16.4707 6.79015 17.3069 6.79015 18.0589C6.79015 18.8108 6.52095 19.647 6.14347 20.1267L4.59144 21.8592C3.88761 22.6428 3.5357 23.0353 3.48457 23.5211C3.43343 24.0068 3.69511 24.464 4.22148 25.3769L4.96441 26.6657C5.52537 27.6388 5.8066 28.126 6.28484 28.32C6.76308 28.514 7.30148 28.3621 8.38279 28.0553L10.2176 27.538C10.9077 27.38 11.6314 27.4706 12.2614 27.7937L12.7667 28.0854C13.3081 28.4313 13.7232 28.9426 13.9518 29.5412L14.4541 31.0406C14.7849 32.0332 14.9503 32.5295 15.3429 32.8152C15.7369 33.0979 16.2587 33.0979 17.3025 33.0979H18.9793C20.023 33.0979 20.5464 33.0979 20.9389 32.8137C21.3314 32.5295 21.4968 32.0332 21.8262 31.0406L22.33 29.5412C22.5586 28.9411 22.9737 28.4313 23.5151 28.0854L24.0204 27.7937C24.652 27.4703 25.3739 27.3786 26.0657 27.538L27.9005 28.0553C28.9803 28.3621 29.5202 28.5155 29.9969 28.3215C30.4752 28.126 30.7564 27.6388 31.3174 26.6657L32.0588 25.3769C32.5851 24.464 32.8483 24.0083 32.7972 23.5211C32.7461 23.0338 32.3941 22.6428 31.6903 21.8592L30.1398 20.1267C29.7608 19.6455 29.4916 18.8108 29.4916 18.0589C29.4916 17.3069 29.7608 16.4707 30.1383 15.991L31.6903 14.257C32.3941 13.475 32.7461 13.0824 32.7972 12.5952C32.8483 12.1079 32.5866 11.6537 32.0603 10.7394Z" stroke="#F9F9F9" stroke-width="1.5" stroke-linecap="round"/>
<path d="M23.3407 18.0468C23.3407 19.4428 22.7861 20.7817 21.799 21.7688C20.8119 22.7559 19.473 23.3105 18.077 23.3105C16.681 23.3105 15.3422 22.7559 14.355 21.7688C13.3679 20.7817 12.8134 19.4428 12.8134 18.0468C12.8134 16.6508 13.3679 15.312 14.355 14.3248C15.3422 13.3377 16.681 12.7831 18.077 12.7831C19.473 12.7831 20.8119 13.3377 21.799 14.3248C22.7861 15.312 23.3407 16.6508 23.3407 18.0468Z" stroke="#F9F9F9" stroke-width="1.5"/>
</svg>
