<svg width="37" height="37" viewBox="0 0 37 37" fill="none" xmlns="http://www.w3.org/2000/svg">
<path d="M23.125 32.375V20.0417C23.125 19.6328 22.9626 19.2407 22.6735 18.9515C22.3843 18.6624 21.9922 18.5 21.5833 18.5H15.4167C15.0078 18.5 14.6157 18.6624 14.3265 18.9515C14.0374 19.2407 13.875 19.6328 13.875 20.0417V32.375" stroke="#F9F9F9" stroke-width="2" stroke-linecap="round" stroke-linejoin="round"/>
<path d="M4.625 15.4167C4.62489 14.9681 4.72264 14.525 4.91142 14.1181C5.10021 13.7113 5.37548 13.3505 5.71804 13.061L16.5097 3.811C17.0662 3.34065 17.7713 3.0826 18.5 3.0826C19.2287 3.0826 19.9338 3.34065 20.4903 3.811L31.282 13.061C31.6245 13.3505 31.8998 13.7113 32.0886 14.1181C32.2774 14.525 32.3751 14.9681 32.375 15.4167V29.2917C32.375 30.1094 32.0501 30.8937 31.4719 31.4719C30.8937 32.0502 30.1094 32.375 29.2917 32.375H7.70833C6.89058 32.375 6.10632 32.0502 5.52809 31.4719C4.94985 30.8937 4.625 30.1094 4.625 29.2917V15.4167Z" stroke="#F9F9F9" stroke-width="2" stroke-linecap="round" stroke-linejoin="round"/>
</svg>
