<svg width="27" height="27" viewBox="0 0 27 27" fill="none" xmlns="http://www.w3.org/2000/svg">
<path d="M23.6252 23.625L18.7394 18.7391M18.7394 18.7391C19.5751 17.9034 20.2381 16.9112 20.6904 15.8192C21.1427 14.7273 21.3755 13.5569 21.3755 12.375C21.3755 11.1931 21.1427 10.0227 20.6904 8.93075C20.2381 7.83879 19.5751 6.84661 18.7394 6.01086C17.9036 5.17511 16.9114 4.51216 15.8195 4.05986C14.7275 3.60755 13.5572 3.37476 12.3752 3.37476C11.1933 3.37476 10.023 3.60755 8.93099 4.05986C7.83903 4.51216 6.84686 5.17511 6.01111 6.01086C4.32324 7.69873 3.375 9.98798 3.375 12.375C3.375 14.762 4.32324 17.0512 6.01111 18.7391C7.69898 20.427 9.98822 21.3752 12.3752 21.3752C14.7622 21.3752 17.0515 20.427 18.7394 18.7391Z" stroke="url(#paint0_linear_397_663)" stroke-width="2" stroke-linecap="round" stroke-linejoin="round"/>
<defs>
<linearGradient id="paint0_linear_397_663" x1="13.5001" y1="3.37476" x2="13.5001" y2="23.625" gradientUnits="userSpaceOnUse">
<stop stop-color="white"/>
<stop offset="1" stop-color="#999999"/>
</linearGradient>
</defs>
</svg>
