<svg width="30" height="30" viewBox="0 0 30 30" fill="none" xmlns="http://www.w3.org/2000/svg">
<path d="M22.5 13.75C22.5 12.5513 21.65 11.5487 20.5238 11.3075C20.9738 10.5562 21.25 9.6875 21.25 8.75C21.25 5.9925 19.0075 3.75 16.25 3.75C14.355 3.75 12.7225 4.82125 11.875 6.38C11.0275 4.82125 9.395 3.75 7.5 3.75C4.7425 3.75 2.5 5.9925 2.5 8.75C2.5 9.8775 2.89 10.9075 3.52125 11.745C3.20617 11.9761 2.94966 12.2779 2.7723 12.6261C2.59495 12.9743 2.50168 13.3592 2.5 13.75V23.75C2.5 25.1287 3.62125 26.25 5 26.25H20C21.3787 26.25 22.5 25.1287 22.5 23.75V20.4538L27.5 22.9538V14.2037L22.5 16.7037V13.75ZM16.25 6.25C17.6287 6.25 18.75 7.37125 18.75 8.75C18.75 10.1287 17.6287 11.25 16.25 11.25C14.8713 11.25 13.75 10.1287 13.75 8.75C13.75 7.37125 14.8713 6.25 16.25 6.25ZM7.5 6.25C8.87875 6.25 10 7.37125 10 8.75C10 10.1287 8.87875 11.25 7.5 11.25C6.12125 11.25 5 10.1287 5 8.75C5 7.37125 6.12125 6.25 7.5 6.25Z" fill="url(#paint0_linear_285_202)"/>
<defs>
<linearGradient id="paint0_linear_285_202" x1="15" y1="3.75" x2="15" y2="26.25" gradientUnits="userSpaceOnUse">
<stop stop-color="#005955"/>
<stop offset="1" stop-color="#00B9AE"/>
</linearGradient>
</defs>
</svg>
