<svg width="22" height="22" viewBox="0 0 22 22" fill="none" xmlns="http://www.w3.org/2000/svg">
<path d="M9.86697 19.1923C9.69952 19.1922 9.5353 19.1462 9.39213 19.0594L6.33597 17.2261C5.9921 17.0187 5.70747 16.7262 5.5095 16.3768C5.31153 16.0274 5.20691 15.633 5.20572 15.2314V11.0835C5.20631 10.7907 5.11527 10.5051 4.94538 10.2667L0.678299 4.2699C0.57866 4.13146 0.519201 3.96818 0.506484 3.79809C0.493766 3.628 0.528284 3.4577 0.606228 3.30598C0.684173 3.15427 0.802514 3.02703 0.948194 2.93831C1.09387 2.8496 1.26123 2.80285 1.4318 2.80323H14.5676C14.7383 2.80252 14.9059 2.84906 15.0518 2.93771C15.1977 3.02635 15.3162 3.15364 15.3942 3.30548C15.4722 3.45732 15.5067 3.62778 15.4938 3.798C15.4809 3.96821 15.4211 4.13154 15.3211 4.2699L11.054 10.2667C10.8838 10.505 10.7925 10.7906 10.7928 11.0835V18.2646C10.7926 18.5103 10.695 18.7458 10.5215 18.9197C10.3479 19.0936 10.1126 19.1916 9.86697 19.1923ZM1.4318 3.72448L5.69155 9.73506C5.97386 10.1278 6.12467 10.5998 6.12238 11.0835V15.2305C6.12272 15.4738 6.18594 15.7129 6.30592 15.9246C6.4259 16.1363 6.59855 16.3134 6.80713 16.4386L9.8633 18.272L9.87613 11.0826C9.87411 10.5988 10.0252 10.1268 10.3079 9.73415L14.574 3.73731L1.4318 3.72448Z" fill="white"/>
</svg>
