<svg width="37" height="37" viewBox="0 0 37 37" fill="none" xmlns="http://www.w3.org/2000/svg">
<path d="M18.5 12.3333C18.5 12.3333 18.5 12.3333 17.3283 10.7917C15.9717 9.00334 13.9675 7.70834 11.5625 7.70834C7.72375 7.70834 4.625 10.8071 4.625 14.6458C4.625 16.0796 5.05667 17.4054 5.79667 18.5C7.04542 20.3654 18.5 32.375 18.5 32.375M18.5 12.3333C18.5 12.3333 18.5 12.3333 19.6717 10.7917C21.0283 9.00334 23.0325 7.70834 25.4375 7.70834C29.2762 7.70834 32.375 10.8071 32.375 14.6458C32.375 16.0796 31.9433 17.4054 31.2033 18.5C29.9546 20.3654 18.5 32.375 18.5 32.375" stroke="#F9F9F9" stroke-width="2" stroke-linecap="round" stroke-linejoin="round"/>
</svg>
