<svg width="37" height="37" viewBox="0 0 37 37" fill="none" xmlns="http://www.w3.org/2000/svg">
<path d="M16.9583 6.16664H20.0678C23.0001 6.16664 24.4662 6.16664 25.3758 7.07006C25.8845 7.57264 26.1096 8.24789 26.2083 9.24998M16.9583 30.8333H20.0678C23.0001 30.8333 24.4662 30.8333 25.3758 29.9299C25.8845 29.4273 26.1096 28.7521 26.2083 27.75M32.375 18.5H21.5833M30.0625 14.6458C30.0625 14.6458 33.9166 17.4825 33.9166 18.5C33.9166 19.5175 30.0625 22.3541 30.0625 22.3541M6.7725 6.16664C6.16663 7.11785 6.16663 8.34502 6.16663 10.7978V26.2052C6.16663 28.658 6.16663 29.8852 6.7725 30.8333C6.88042 31.0029 7.00118 31.1632 7.13479 31.3143C7.87942 32.1561 9.06033 32.4937 11.4206 33.1674C13.784 33.8426 14.9665 34.1803 15.8236 33.6746C15.972 33.5865 16.1101 33.482 16.2353 33.3632C16.9583 32.6771 16.9583 31.45 16.9583 28.9879V8.01202C16.9583 5.55152 16.9583 4.32281 16.2353 3.63831C16.1101 3.51947 15.972 3.41501 15.8236 3.32689C14.968 2.82123 13.784 3.15731 11.4191 3.8341C9.06033 4.50781 7.87942 4.84543 7.13325 5.68718C7.00066 5.83788 6.88004 5.99716 6.7725 6.16664Z" stroke="#F9F9F9" stroke-opacity="0.7" stroke-width="2" stroke-linecap="round" stroke-linejoin="round"/>
</svg>
