<svg width="37" height="37" viewBox="0 0 37 37" fill="none" xmlns="http://www.w3.org/2000/svg">
<path d="M33.9166 18.5C33.9166 9.98539 27.0146 3.08334 18.5 3.08334C9.98536 3.08334 3.08331 9.98539 3.08331 18.5C3.08331 27.0146 9.98536 33.9167 18.5 33.9167C27.0146 33.9167 33.9166 27.0146 33.9166 18.5Z" stroke="#F9F9F9" stroke-width="1.5"/>
<path d="M19.1182 12.7928L23.6198 11.2927C24.9858 10.8364 25.6703 10.6098 26.031 10.969C26.3902 11.3297 26.1636 12.0127 25.7073 13.3801L24.2072 17.8818C23.4318 20.2097 23.0433 21.3737 22.2077 22.2077C21.3736 23.0433 20.2097 23.4318 17.8818 24.2073L13.3801 25.7073C12.0126 26.1636 11.3297 26.3918 10.9689 26.0311C10.6082 25.6703 10.8363 24.9858 11.2927 23.6199L12.7927 19.1182C13.5682 16.7903 13.9567 15.6264 14.7923 14.7923C15.6263 13.9567 16.7903 13.5682 19.1182 12.7928Z" stroke="#F9F9F9" stroke-width="1.5" stroke-linecap="round" stroke-linejoin="round"/>
<path d="M18.5 18.5L18.4907 18.5092" stroke="#F9F9F9" stroke-width="2" stroke-linecap="round" stroke-linejoin="round"/>
</svg>
