<svg width="20" height="16" viewBox="0 0 20 16" fill="none" xmlns="http://www.w3.org/2000/svg">
<path d="M11 0H15V1.88235H11V0ZM1 4.70588H5V6.58824H1V4.70588ZM1 12.2353H5V14.1176H1V12.2353ZM0 8.47059H3.99V10.3529H0V8.47059ZM19.707 3.48894L18.293 2.15812L16.586 3.76471C15.504 3.14946 14.2641 2.82402 13 2.82353C9.141 2.82353 6 5.77976 6 9.41176C6 13.0438 9.141 16 13 16C16.859 16 20 13.0438 20 9.41176C19.9988 7.76103 19.3364 6.1714 18.145 4.96L19.707 3.48894ZM14 10.3529H12V5.60753H14V10.3529Z" fill="white" fill-opacity="0.7"/>
</svg>
