<svg width="1728" height="1285" viewBox="0 0 1728 1285" fill="none" xmlns="http://www.w3.org/2000/svg">
<g filter="url(#filter0_f_377_442)">
<ellipse cx="549.322" cy="786.176" rx="266.368" ry="420.392" transform="rotate(-85.3691 549.322 786.176)" fill="url(#paint0_linear_377_442)"/>
</g>
<mask id="mask0_377_442" style="mask-type:alpha" maskUnits="userSpaceOnUse" x="-266" y="260" width="1467" height="816">
<path d="M1200.32 1075.3L1015.99 321.239L283.409 260.906L34.5354 288.433L-265.092 668.501L-164.561 995.545L591.376 1056.78L1200.32 1075.3Z" fill="url(#paint1_linear_377_442)"/>
</mask>
<g mask="url(#mask0_377_442)">
</g>
<mask id="mask1_377_442" style="mask-type:alpha" maskUnits="userSpaceOnUse" x="-240" y="208" width="1377" height="905">
<path d="M-239.432 1006.37C-211.08 663.482 -174.841 226.077 -174.835 208.886L1136.11 315.073L1071.51 1112.56L-239.432 1006.37Z" fill="url(#paint2_linear_377_442)"/>
</mask>
<g mask="url(#mask1_377_442)">
<path d="M367.273 362.519C515.13 374.495 629.496 507.383 620.577 617.493C611.658 727.602 540.101 867.253 381.463 854.403C302.85 848.035 201.437 913.909 112.479 851.512C21.924 787.993 55.7073 639.569 60.2064 584.024C69.1253 473.915 219.416 350.542 367.273 362.519Z" fill="url(#paint3_linear_377_442)"/>
<g filter="url(#filter1_f_377_442)">
<path d="M364.736 371.805C523.31 384.65 628.245 499.413 620.579 594.06C612.913 688.706 543.023 808.067 384.45 795.222C305.869 788.857 205.133 846.859 115.59 792.165C24.4381 736.488 56.5043 609.152 60.3716 561.408C68.038 466.761 206.163 358.961 364.736 371.805Z" fill="url(#paint4_linear_377_442)"/>
</g>
<g filter="url(#filter2_f_377_442)">
<path d="M369.54 372.196C547.27 386.592 663.924 527.051 654.473 643.739C645.021 760.426 565.561 908.126 387.831 893.729C299.757 886.595 185.374 969.841 85.4419 903.257C-16.2858 835.477 21.6255 668.422 26.3934 609.559C35.8451 492.872 191.81 357.8 369.54 372.196Z" fill="url(#paint5_linear_377_442)"/>
</g>
<g filter="url(#filter3_f_377_442)">
<path d="M388.933 387.677C606.047 434.074 775.55 600.14 764.488 736.708C753.426 873.275 630.094 1011.89 416.942 994.625C311.315 986.069 163.473 1123.91 43.4881 1045.74C-78.6526 966.164 -34.5173 782.256 -28.9371 713.365C-17.8751 576.797 137.419 333.929 388.933 387.677Z" fill="url(#paint6_linear_377_442)"/>
</g>
<g filter="url(#filter4_f_377_442)">
<path d="M458.387 448.935C687.896 467.525 871.226 659.484 860.411 793.007C849.595 926.53 717.983 1061.16 488.474 1042.57C374.741 1033.36 232.521 1073.13 102.782 995.694C-29.2865 916.866 16.7415 737.291 22.1974 669.935C33.0128 536.412 228.879 430.345 458.387 448.935Z" fill="url(#paint7_linear_377_442)"/>
</g>
<g filter="url(#filter5_f_377_442)">
<path d="M543.397 509.467C780.574 528.679 970.179 725.184 959.117 861.751C948.055 998.319 812.17 1135.92 574.994 1116.71C457.461 1107.19 310.533 1147.75 176.404 1068.43C39.8646 987.684 87.2739 804.041 92.8542 735.149C103.916 598.582 306.221 490.256 543.397 509.467Z" fill="url(#paint8_linear_377_442)"/>
</g>
<g filter="url(#filter6_f_377_442)">
<path d="M366.767 473.301C574.297 490.111 738.379 684.548 727.317 821.116C716.255 957.683 595.861 1096.54 388.332 1079.73C285.491 1071.4 157.68 1097.61 41.0055 1019.71C-77.7653 940.401 -34.3963 756.431 -28.8161 687.539C-17.754 550.972 159.238 456.491 366.767 473.301Z" fill="url(#paint9_linear_377_442)"/>
</g>
</g>
<g filter="url(#filter7_f_377_442)">
<path d="M180.444 917.488C166.442 874.282 199.008 777.275 241.225 675.514L252.184 540.217C261.717 422.522 453.469 470.162 609.55 551.449C765.631 632.736 761.807 629.104 748.45 743.168C735.093 857.231 818.483 806.413 911.641 863.781C1004.8 921.149 808.657 815.968 692.088 895.099C575.519 974.23 646.532 997.31 485.693 911.209C324.854 825.108 328.567 864.166 320.067 905.546C311.568 946.926 360.662 950.91 352.43 988.994C344.197 1027.08 324.144 1007.74 258.331 981.372C192.518 955.005 194.446 960.695 180.444 917.488Z" fill="#005955"/>
</g>
<mask id="mask2_377_442" style="mask-type:alpha" maskUnits="userSpaceOnUse" x="-75" y="202" width="859" height="1216">
<path d="M674.061 202.567L-74.9167 444.209L-34.3942 1024.47L28.6974 1218.66L461.056 1417.87L783.014 1296.72L740.196 688.571L674.061 202.567Z" fill="url(#paint10_linear_377_442)"/>
</mask>
<g mask="url(#mask2_377_442)">
<mask id="mask3_377_442" style="mask-type:alpha" maskUnits="userSpaceOnUse" x="-63" y="265" width="835" height="1133">
<path d="M771.822 1352.17C415.559 1372.95 26.6977 1395.5 9.03453 1397.66L-62.6621 311.428L700.126 265.931L771.822 1352.17Z" fill="url(#paint11_linear_377_442)"/>
</mask>
<g mask="url(#mask3_377_442)">
<path d="M58.2292 954.252C49.8542 835.301 170.394 727.681 284.772 720.859C399.151 714.036 552.643 753.235 561.628 880.859C566.081 944.103 647.947 1016.33 596.279 1094.87C543.683 1174.82 386.46 1166.73 328.762 1170.17C214.383 1176.99 66.6042 1073.2 58.2292 954.252Z" fill="#00B9AE"/>
<g filter="url(#filter8_f_377_442)">
<path d="M68.1259 955.092C59.1439 827.52 151.765 730.312 240.565 725.016C329.365 719.719 449.288 760.901 458.27 888.473C462.721 951.691 529.795 1024.77 490.862 1102.52C451.231 1181.66 328.895 1171.5 284.1 1174.17C195.3 1179.47 77.1078 1082.66 68.1259 955.092Z" fill="#00B9AE"/>
</g>
<g filter="url(#filter9_f_377_442)">
<path d="M67.8546 951.231C57.7875 808.247 172.888 698.623 282.537 692.083C392.185 685.543 539.878 730.907 549.945 873.89C554.934 944.745 647.355 1025.63 598.679 1113.06C549.129 1202.07 388.935 1192.06 333.622 1195.36C223.973 1201.9 77.9216 1094.21 67.8546 951.231Z" fill="#00B9AE"/>
</g>
<g filter="url(#filter10_f_377_442)">
<path d="M102.503 932.537C119.807 754.23 266.723 598.627 408.586 590.165C550.448 581.704 710.118 662.157 722.191 833.637C728.174 918.614 890.481 1018.63 826.944 1123.8C762.266 1230.87 502.45 1236.14 430.887 1240.41C289.025 1248.87 82.4587 1139.09 102.503 932.537Z" fill="#00B9AE"/>
</g>
<g filter="url(#filter11_f_377_442)">
<path d="M135.202 884.152C122.202 699.513 292.858 516.469 431.559 508.197C570.259 499.924 726.994 587.456 739.994 772.096C746.436 863.593 807.191 971.531 745.775 1084.36C683.255 1199.21 399.461 1270.33 329.493 1274.5C190.793 1282.77 148.202 1068.79 135.202 884.152Z" fill="#00B9AE"/>
</g>
<g filter="url(#filter12_f_377_442)">
<path d="M184.578 795.8C171.144 604.992 346.522 429.577 488.385 421.116C630.248 412.655 790.628 503.206 804.063 694.014C810.72 788.568 628.74 941.197 566.004 1057.75C502.142 1176.4 306.828 1161.93 235.265 1166.2C93.4028 1174.66 198.012 986.608 184.578 795.8Z" fill="#00B9AE"/>
</g>
<g filter="url(#filter13_f_377_442)">
<path d="M172.123 940.66C160.368 773.703 337.192 618.821 479.055 610.36C620.918 601.898 780.421 679.988 792.176 846.944C798.001 929.68 842.81 1027.88 779.086 1130.39C714.218 1234.75 519.132 1223.53 447.57 1227.8C305.707 1236.26 183.878 1107.62 172.123 940.66Z" fill="#00B9AE"/>
</g>
</g>
</g>
<mask id="mask4_377_442" style="mask-type:alpha" maskUnits="userSpaceOnUse" x="-260" y="64" width="1670" height="1389">
<path d="M1098.03 64.7433C1199.26 392.169 1403.36 1050.99 1409.86 1066.89L52.0394 1452.23L-259.792 450.09L1098.03 64.7433Z" fill="url(#paint12_linear_377_442)"/>
</mask>
<g mask="url(#mask4_377_442)">
<path d="M825.612 1185.09C674.398 1195.25 507.239 1147.89 474.543 1042.82C441.847 937.741 460.933 782.254 625.243 735.623C706.667 712.515 682.228 643.008 795.249 667.879C910.299 693.197 932.5 842.862 948.994 895.868C981.69 1000.94 976.826 1174.93 825.612 1185.09Z" fill="#00B9AE"/>
<g filter="url(#filter14_f_377_442)">
<path d="M805.944 1183.96C551.446 1175.24 511.51 1154.79 483.406 1064.48C455.302 974.156 480.388 838.041 644.631 791.429C726.022 768.33 701.93 706.903 812.625 724.437C925.308 742.286 942.055 874.391 956.232 919.953C984.336 1010.27 933.516 1194.29 805.944 1183.96Z" fill="#00B9AE"/>
</g>
<g filter="url(#filter15_f_377_442)">
<path d="M819.67 1176.98C526.13 1201.04 363.928 1081.86 329.279 970.507C294.63 859.154 419.876 753.858 603.962 701.614C695.185 675.726 606.977 605.308 732.613 630.001C860.505 655.138 909.39 831.6 926.869 887.772C961.518 999.125 1003.76 1124.74 819.67 1176.98Z" fill="#00B9AE"/>
</g>
<g filter="url(#filter16_f_377_442)">
<path d="M794.322 1169.82C535.911 1194.88 245.532 1107.65 204.98 977.327C164.428 847.002 315.756 681.741 536.529 619.086C645.933 588.037 570.697 454.806 720.873 482.816C873.746 511.33 898.968 697.615 919.424 763.357C959.977 893.681 1052.73 1144.77 794.322 1169.82Z" fill="#00B9AE"/>
</g>
<g filter="url(#filter17_f_377_442)">
<path d="M599.953 1155.36C204.497 1123.33 197.406 1114.83 157.758 987.41C118.11 859.991 208.775 668.606 446.49 601.143C564.29 567.712 600.247 582.289 759.946 606.021C922.515 630.18 947.194 847.63 967.194 911.906C1006.84 1039.33 829.286 1173.93 599.953 1155.36Z" fill="#00B9AE"/>
</g>
<g filter="url(#filter18_f_377_442)">
<path d="M592.989 1114.21C347.332 1183.92 82.4095 1072.2 41.8572 941.878C1.30482 811.553 85.8232 634.238 331.48 564.521C453.215 529.973 657.991 466.556 822.816 490.408C990.603 514.689 866.06 822.245 886.516 887.987C927.069 1018.31 838.646 1044.49 592.989 1114.21Z" fill="#00B9AE"/>
</g>
<g filter="url(#filter19_f_377_442)">
<path d="M784.204 1082.49C569.255 1143.49 330.768 1024.27 290.215 893.942C249.663 763.618 318.137 590.856 533.086 529.854C639.604 499.624 555.257 485.833 702.004 514.817C851.387 544.321 877.402 730.38 897.859 796.122C938.411 926.447 999.154 1021.48 784.204 1082.49Z" fill="#00B9AE"/>
</g>
</g>
<g opacity="0.6" filter="url(#filter20_f_377_442)">
<path d="M534.862 579.358C716.863 594.101 914.093 769.268 906.869 858.451C899.645 947.635 1018.43 1161.62 582.86 947.017C400.859 932.275 171.122 1087.83 247.784 805.065C255.008 715.882 436.83 829.408 534.862 579.358Z" fill="url(#paint13_linear_377_442)"/>
</g>
<g filter="url(#filter21_f_377_442)">
<ellipse cx="218.638" cy="332.428" rx="218.638" ry="332.428" transform="matrix(0.998071 -0.0620851 -0.0620851 -0.998071 890.397 331.1)" fill="#328B85"/>
</g>
<mask id="mask5_377_442" style="mask-type:alpha" maskUnits="userSpaceOnUse" x="861" y="-533" width="654" height="1165">
<path d="M861.942 -532.786L1477.49 -377.276L1514.39 202.804L1487.52 399.25L1170.51 631.273L903.9 547.549L866.666 -51.0134L861.942 -532.786Z" fill="url(#paint14_linear_377_442)"/>
</mask>
<g mask="url(#mask5_377_442)">
</g>
<mask id="mask6_377_442" style="mask-type:alpha" maskUnits="userSpaceOnUse" x="829" y="-473" width="721" height="1080">
<path d="M893.73 606.614C1175.56 588.626 1535.08 565.623 1549.19 565.841L1484.62 -472.185L829.16 -431.412L893.73 606.614Z" fill="url(#paint15_linear_377_442)"/>
</mask>
<g mask="url(#mask6_377_442)">
<path d="M1432.46 135.175C1425.18 18.0988 1318.11 -74.0558 1227.61 -68.4262C1137.11 -62.7966 1021.29 -8.01628 1029.1 117.596C1032.98 179.843 977.181 259.185 1026.85 330.337C1077.41 402.766 1199.77 377.97 1245.43 375.13C1335.93 369.5 1439.74 252.25 1432.46 135.175Z" fill="#328B85"/>
<g filter="url(#filter22_f_377_442)">
<path d="M1424.8 137.06C1416.99 11.4995 1324.63 -72.9638 1246.84 -68.1248C1169.04 -63.2858 1069.9 -9.56229 1077.71 115.999C1081.59 178.22 1032.26 257.129 1075.6 328.644C1119.71 401.444 1224.75 377.732 1263.99 375.291C1341.78 370.452 1432.61 262.621 1424.8 137.06Z" fill="#328B85"/>
</g>
<g filter="url(#filter23_f_377_442)">
<path d="M1424.56 133.256C1415.8 -7.47318 1302.56 -101.535 1206.66 -95.5693C1110.75 -89.6034 988.192 -28.6781 996.946 112.051C1001.28 181.79 931.011 271.164 983.925 351.048C1037.79 432.367 1175.51 404.547 1223.89 401.538C1319.8 395.572 1433.31 273.986 1424.56 133.256Z" fill="#328B85"/>
</g>
<g filter="url(#filter24_f_377_442)">
<path d="M1412.19 117.721C1377.86 -54.5657 1244.51 -190.75 1132.27 -183.767C1020.02 -176.785 904.162 -81.0494 914.661 87.7275C919.863 171.365 804.215 286.491 866.293 382.382C929.485 479.996 1081.14 447.472 1137.77 443.95C1250.01 436.968 1451.96 317.305 1412.19 117.721Z" fill="#328B85"/>
</g>
<g filter="url(#filter25_f_377_442)">
<path d="M1363.12 62.0067C1351.82 -119.722 1197.47 -267.174 1087.72 -260.348C977.979 -253.521 865.246 -151.186 876.551 30.5423C882.153 120.598 847.072 232.547 908.378 336.141C970.785 441.596 1118.92 407.519 1174.28 404.075C1284.03 397.249 1374.43 243.735 1363.12 62.0067Z" fill="#328B85"/>
</g>
<g filter="url(#filter26_f_377_442)">
<path d="M1314.92 -5.99835C1303.23 -193.798 1145.26 -346.272 1033.01 -339.29C920.769 -332.307 805.528 -226.632 817.21 -38.8324C822.999 54.2315 787.191 169.893 849.965 276.984C913.867 385.998 1065.37 350.882 1121.99 347.36C1234.23 340.378 1326.6 181.801 1314.92 -5.99835Z" fill="#328B85"/>
</g>
<g filter="url(#filter27_f_377_442)">
<path d="M1341.55 134.142C1331.33 -30.1824 1174.61 -162.447 1062.37 -155.465C950.122 -148.482 834.119 -55.0729 844.341 109.252C849.406 190.683 825.698 291.412 887.613 384.682C950.64 479.627 1102.34 447.71 1158.96 444.188C1271.21 437.206 1351.77 298.467 1341.55 134.142Z" fill="#328B85"/>
</g>
</g>
<g filter="url(#filter28_f_377_442)">
<path d="M973.883 275.739C1009.09 287.37 1089.25 262.872 1173.47 230.803L1284.68 223.886C1381.41 217.868 1345.62 65.6214 1281.61 -58.8534C1217.6 -183.328 1220.51 -180.257 1126.69 -171.169C1032.87 -162.081 1076 -227.366 1030.53 -301.774C985.064 -376.183 1067.99 -219.72 1001.06 -128.564C934.124 -37.4073 916.408 -93.8602 984.287 34.439C1052.17 162.738 1020.18 159.297 986.084 165.484C951.985 171.67 949.561 132.796 918.171 138.814C886.781 144.831 902.303 160.939 922.806 213.323C943.308 265.707 938.672 264.108 973.883 275.739Z" fill="#21242D"/>
</g>
<mask id="mask7_377_442" style="mask-type:alpha" maskUnits="userSpaceOnUse" x="568" y="-206" width="1001" height="690">
<path d="M1568.98 -105.358L1357.82 483.787L882.408 444.243L724.152 391.842L568.137 47.3718L673.085 -205.657L1171.35 -163.937L1568.98 -105.358Z" fill="url(#paint16_linear_377_442)"/>
</mask>
<g mask="url(#mask7_377_442)">
<mask id="mask8_377_442" style="mask-type:alpha" maskUnits="userSpaceOnUse" x="576" y="-198" width="942" height="674">
<path d="M627.398 -197.524C604.213 83.9294 579.024 391.137 576.942 405.077L1466.98 475.812L1517.44 -126.788L627.398 -197.524Z" fill="url(#paint17_linear_377_442)"/>
</mask>
<g mask="url(#mask8_377_442)">
<path d="M941.615 371.907C1039.07 380.067 1129.45 286.139 1137.02 195.78C1144.58 105.422 1115.06 -16.4616 1010.5 -25.2167C958.681 -29.5553 900.824 -95.2258 835.494 -55.3837C768.991 -14.8257 772.922 109.606 769.105 155.187C761.54 245.546 844.158 363.747 941.615 371.907Z" fill="#328B85"/>
<g filter="url(#filter29_f_377_442)">
<path d="M941.096 364.07C1045.62 372.822 1126.97 300.836 1132.84 230.684C1138.72 160.533 1106.99 65.1693 1002.47 56.4177C950.677 52.0809 891.867 -1.9038 827.405 27.8777C761.785 58.1942 768.018 155.065 765.055 190.453C759.181 260.605 836.575 355.318 941.096 364.07Z" fill="#328B85"/>
</g>
<g filter="url(#filter30_f_377_442)">
<path d="M944.26 364.334C1061.41 374.143 1153.34 284.542 1160.59 197.92C1167.84 111.298 1133.16 -6.07934 1016.01 -15.8882C957.962 -20.7489 893.189 -94.8778 820.606 -57.5168C746.72 -19.4845 752.179 107.321 748.52 151.018C741.267 237.64 827.113 354.525 944.26 364.334Z" fill="#328B85"/>
</g>
<g filter="url(#filter31_f_377_442)">
<path d="M960.195 337.177C1106.8 325.799 1237 211.633 1246.38 99.5619C1255.77 -12.5093 1192.5 -139.811 1052.01 -151.575C982.385 -157.404 903.112 -287.043 815.723 -238.16C726.763 -188.399 717.966 16.9873 713.233 73.5218C703.849 185.593 790.365 350.358 960.195 337.177Z" fill="#328B85"/>
</g>
<g filter="url(#filter32_f_377_442)">
<path d="M1000.46 311.945C1151.73 324.612 1304.86 192.028 1314.04 82.4548C1323.21 -27.1179 1254.09 -152.19 1102.81 -164.857C1027.84 -171.134 940.325 -220.572 846.692 -173.465C751.376 -125.511 688.142 97.986 683.514 153.26C674.339 262.833 849.182 299.279 1000.46 311.945Z" fill="#328B85"/>
</g>
<g filter="url(#filter33_f_377_442)">
<path d="M1073.8 274.042C1230.13 287.132 1377.08 150.715 1386.46 38.6441C1395.85 -73.427 1324.31 -201.421 1167.98 -214.511C1090.51 -220.998 962.144 -79.0661 865.431 -30.9636C766.981 18.003 775.487 172.638 770.754 229.173C761.37 341.244 917.472 260.953 1073.8 274.042Z" fill="#328B85"/>
</g>
<g filter="url(#filter34_f_377_442)">
<path d="M954.728 282.019C1091.52 293.472 1221.64 155.647 1231.03 43.5758C1240.41 -68.4953 1179.08 -195.635 1042.29 -207.088C974.507 -212.764 894.699 -249.467 809.491 -200.401C722.753 -150.454 728.596 3.95839 723.862 60.4928C714.478 172.564 817.939 270.565 954.728 282.019Z" fill="#328B85"/>
</g>
</g>
</g>
<mask id="mask9_377_442" style="mask-type:alpha" maskUnits="userSpaceOnUse" x="532" y="-699" width="1158" height="1329">
<path d="M1689.38 -438.84C1422.46 -523.126 885.394 -693.035 872.466 -698.38L532.917 370.36L1349.83 629.9L1689.38 -438.84Z" fill="url(#paint18_linear_377_442)"/>
</mask>
<g mask="url(#mask9_377_442)">
<path d="M765.422 -237.904C754.482 -118.46 790.467 14.3365 876.121 41.5495C961.774 68.7625 1089.68 55.6798 1130.77 -73.6491C1151.13 -137.738 1207.74 -117.514 1189.28 -207.208C1170.49 -298.514 1048.07 -318.004 1004.86 -331.732C919.205 -358.945 776.361 -357.348 765.422 -237.904Z" fill="#005955"/>
<g filter="url(#filter35_f_377_442)">
<path d="M766.011 -222.336C768.787 -20.9746 784.876 10.8693 858.502 34.2607C932.127 57.6521 1044.24 39.5742 1085.32 -89.7019C1105.67 -153.765 1155.66 -133.92 1143.17 -221.68C1130.47 -311.017 1022.36 -325.967 985.221 -337.767C911.595 -361.158 759.728 -323.35 766.011 -222.336Z" fill="#005955"/>
</g>
<g filter="url(#filter36_f_377_442)">
<path d="M771.976 -233.101C747.183 -1.29005 842.181 128.515 932.952 157.354C1023.72 186.193 1112.28 88.5122 1158.31 -56.3812C1181.12 -128.183 1237.38 -57.5211 1219.28 -157.189C1200.86 -258.647 1056.91 -299.585 1011.12 -314.133C920.349 -342.971 818.01 -377.995 771.976 -233.101Z" fill="#005955"/>
</g>
<g filter="url(#filter37_f_377_442)">
<path d="M777.411 -212.964C752.409 -8.94394 818.982 221.805 925.218 255.557C1031.45 289.31 1169.66 171.78 1224.87 -1.99048C1252.22 -88.1024 1360.25 -26.8864 1339.85 -146.002C1319.08 -267.258 1166.67 -289.61 1113.08 -306.637C1006.84 -340.389 802.413 -416.983 777.411 -212.964Z" fill="#005955"/>
</g>
<g filter="url(#filter38_f_377_442)">
<path d="M785.937 -59.0763C805.415 254.052 812.265 259.769 916.132 292.769C1020 325.768 1178.59 256.547 1238.04 69.4409C1267.5 -23.2791 1256.16 -51.9012 1239.43 -178.493C1222.4 -307.36 1044.41 -329.686 992.012 -346.332C888.145 -379.332 774.641 -240.665 785.937 -59.0763Z" fill="#005955"/>
</g>
<g filter="url(#filter39_f_377_442)">
<path d="M819.583 -53.0366C758.152 140.32 845.262 351.256 951.497 385.008C1057.73 418.76 1204.68 354.218 1266.11 160.861C1296.55 65.0437 1352.11 -96.0671 1335.37 -226.714C1318.34 -359.708 1063.84 -265.199 1010.25 -282.225C904.014 -315.977 881.014 -246.393 819.583 -53.0366Z" fill="#005955"/>
</g>
<g filter="url(#filter40_f_377_442)">
<path d="M848.899 -203.834C795.147 -34.6472 888.867 155.482 995.103 189.234C1101.34 222.986 1244.27 171.072 1298.02 1.88527C1324.66 -81.9551 1334.52 -15.078 1313.27 -131.495C1291.63 -250.004 1139.41 -272.981 1085.82 -290.007C979.586 -323.759 902.651 -373.021 848.899 -203.834Z" fill="#005955"/>
</g>
</g>
<g opacity="0.6" filter="url(#filter41_f_377_442)">
<path d="M1257.42 -0.153134C1248.46 -144.265 1108.12 -302.491 1034.82 -297.932C961.522 -293.372 787.988 -390.066 956.578 -42.8604C965.543 101.251 833.956 280.909 1067.29 223.942C1140.59 219.382 1050.57 74.1358 1257.42 -0.153134Z" fill="#02FFF0"/>
</g>
<rect width="1728" height="1285" fill="black" fill-opacity="0.2"/>
<defs>
<filter id="filter0_f_377_442" x="29.7407" y="418.487" width="1039.16" height="735.377" filterUnits="userSpaceOnUse" color-interpolation-filters="sRGB">
<feFlood flood-opacity="0" result="BackgroundImageFix"/>
<feBlend mode="normal" in="SourceGraphic" in2="BackgroundImageFix" result="shape"/>
<feGaussianBlur stdDeviation="50" result="effect1_foregroundBlur_377_442"/>
</filter>
<filter id="filter1_f_377_442" x="47.7793" y="366.759" width="577.193" height="453.101" filterUnits="userSpaceOnUse" color-interpolation-filters="sRGB">
<feFlood flood-opacity="0" result="BackgroundImageFix"/>
<feBlend mode="normal" in="SourceGraphic" in2="BackgroundImageFix" result="shape"/>
<feGaussianBlur stdDeviation="2" result="effect1_foregroundBlur_377_442"/>
</filter>
<filter id="filter2_f_377_442" x="1.56445" y="357.137" width="667.443" height="586.105" filterUnits="userSpaceOnUse" color-interpolation-filters="sRGB">
<feFlood flood-opacity="0" result="BackgroundImageFix"/>
<feBlend mode="normal" in="SourceGraphic" in2="BackgroundImageFix" result="shape"/>
<feGaussianBlur stdDeviation="7" result="effect1_foregroundBlur_377_442"/>
</filter>
<filter id="filter3_f_377_442" x="-61.248" y="360.041" width="846.249" height="729.79" filterUnits="userSpaceOnUse" color-interpolation-filters="sRGB">
<feFlood flood-opacity="0" result="BackgroundImageFix"/>
<feBlend mode="normal" in="SourceGraphic" in2="BackgroundImageFix" result="shape"/>
<feGaussianBlur stdDeviation="10" result="effect1_foregroundBlur_377_442"/>
</filter>
<filter id="filter4_f_377_442" x="-43.96" y="392.814" width="958.826" height="705.976" filterUnits="userSpaceOnUse" color-interpolation-filters="sRGB">
<feFlood flood-opacity="0" result="BackgroundImageFix"/>
<feBlend mode="normal" in="SourceGraphic" in2="BackgroundImageFix" result="shape"/>
<feGaussianBlur stdDeviation="27" result="effect1_foregroundBlur_377_442"/>
</filter>
<filter id="filter5_f_377_442" x="-53.5967" y="373.253" width="1147.17" height="879.573" filterUnits="userSpaceOnUse" color-interpolation-filters="sRGB">
<feFlood flood-opacity="0" result="BackgroundImageFix"/>
<feBlend mode="normal" in="SourceGraphic" in2="BackgroundImageFix" result="shape"/>
<feGaussianBlur stdDeviation="67" result="effect1_foregroundBlur_377_442"/>
</filter>
<filter id="filter6_f_377_442" x="-103.1" y="409.366" width="892.945" height="733.749" filterUnits="userSpaceOnUse" color-interpolation-filters="sRGB">
<feFlood flood-opacity="0" result="BackgroundImageFix"/>
<feBlend mode="normal" in="SourceGraphic" in2="BackgroundImageFix" result="shape"/>
<feGaussianBlur stdDeviation="31" result="effect1_foregroundBlur_377_442"/>
</filter>
<filter id="filter7_f_377_442" x="109.148" y="401.631" width="894.833" height="676.726" filterUnits="userSpaceOnUse" color-interpolation-filters="sRGB">
<feFlood flood-opacity="0" result="BackgroundImageFix"/>
<feBlend mode="normal" in="SourceGraphic" in2="BackgroundImageFix" result="shape"/>
<feGaussianBlur stdDeviation="34" result="effect1_foregroundBlur_377_442"/>
</filter>
<filter id="filter8_f_377_442" x="63.521" y="720.57" width="443.442" height="457.807" filterUnits="userSpaceOnUse" color-interpolation-filters="sRGB">
<feFlood flood-opacity="0" result="BackgroundImageFix"/>
<feBlend mode="normal" in="SourceGraphic" in2="BackgroundImageFix" result="shape"/>
<feGaussianBlur stdDeviation="2" result="effect1_foregroundBlur_377_442"/>
</filter>
<filter id="filter9_f_377_442" x="53.2383" y="677.476" width="573.558" height="532.168" filterUnits="userSpaceOnUse" color-interpolation-filters="sRGB">
<feFlood flood-opacity="0" result="BackgroundImageFix"/>
<feBlend mode="normal" in="SourceGraphic" in2="BackgroundImageFix" result="shape"/>
<feGaussianBlur stdDeviation="7" result="effect1_foregroundBlur_377_442"/>
</filter>
<filter id="filter10_f_377_442" x="81.1475" y="569.562" width="780.52" height="691.3" filterUnits="userSpaceOnUse" color-interpolation-filters="sRGB">
<feFlood flood-opacity="0" result="BackgroundImageFix"/>
<feBlend mode="normal" in="SourceGraphic" in2="BackgroundImageFix" result="shape"/>
<feGaussianBlur stdDeviation="10" result="effect1_foregroundBlur_377_442"/>
</filter>
<filter id="filter11_f_377_442" x="80.502" y="453.661" width="746.504" height="875.072" filterUnits="userSpaceOnUse" color-interpolation-filters="sRGB">
<feFlood flood-opacity="0" result="BackgroundImageFix"/>
<feBlend mode="normal" in="SourceGraphic" in2="BackgroundImageFix" result="shape"/>
<feGaussianBlur stdDeviation="27" result="effect1_foregroundBlur_377_442"/>
</filter>
<filter id="filter12_f_377_442" x="25.939" y="286.574" width="912.302" height="1013.9" filterUnits="userSpaceOnUse" color-interpolation-filters="sRGB">
<feFlood flood-opacity="0" result="BackgroundImageFix"/>
<feBlend mode="normal" in="SourceGraphic" in2="BackgroundImageFix" result="shape"/>
<feGaussianBlur stdDeviation="67" result="effect1_foregroundBlur_377_442"/>
</filter>
<filter id="filter13_f_377_442" x="109.566" y="547.74" width="765.337" height="742.457" filterUnits="userSpaceOnUse" color-interpolation-filters="sRGB">
<feFlood flood-opacity="0" result="BackgroundImageFix"/>
<feBlend mode="normal" in="SourceGraphic" in2="BackgroundImageFix" result="shape"/>
<feGaussianBlur stdDeviation="31" result="effect1_foregroundBlur_377_442"/>
</filter>
<filter id="filter14_f_377_442" x="469.493" y="717.333" width="498.257" height="471.046" filterUnits="userSpaceOnUse" color-interpolation-filters="sRGB">
<feFlood flood-opacity="0" result="BackgroundImageFix"/>
<feBlend mode="normal" in="SourceGraphic" in2="BackgroundImageFix" result="shape"/>
<feGaussianBlur stdDeviation="2" result="effect1_foregroundBlur_377_442"/>
</filter>
<filter id="filter15_f_377_442" x="309.512" y="610.833" width="661.702" height="583.274" filterUnits="userSpaceOnUse" color-interpolation-filters="sRGB">
<feFlood flood-opacity="0" result="BackgroundImageFix"/>
<feBlend mode="normal" in="SourceGraphic" in2="BackgroundImageFix" result="shape"/>
<feGaussianBlur stdDeviation="7" result="effect1_foregroundBlur_377_442"/>
</filter>
<filter id="filter16_f_377_442" x="178.4" y="458.973" width="810.921" height="735.145" filterUnits="userSpaceOnUse" color-interpolation-filters="sRGB">
<feFlood flood-opacity="0" result="BackgroundImageFix"/>
<feBlend mode="normal" in="SourceGraphic" in2="BackgroundImageFix" result="shape"/>
<feGaussianBlur stdDeviation="10" result="effect1_foregroundBlur_377_442"/>
</filter>
<filter id="filter17_f_377_442" x="94.7686" y="527.547" width="931.987" height="683.538" filterUnits="userSpaceOnUse" color-interpolation-filters="sRGB">
<feFlood flood-opacity="0" result="BackgroundImageFix"/>
<feBlend mode="normal" in="SourceGraphic" in2="BackgroundImageFix" result="shape"/>
<feGaussianBlur stdDeviation="27" result="effect1_foregroundBlur_377_442"/>
</filter>
<filter id="filter18_f_377_442" x="-101.855" y="351.172" width="1147.79" height="918.461" filterUnits="userSpaceOnUse" color-interpolation-filters="sRGB">
<feFlood flood-opacity="0" result="BackgroundImageFix"/>
<feBlend mode="normal" in="SourceGraphic" in2="BackgroundImageFix" result="shape"/>
<feGaussianBlur stdDeviation="67" result="effect1_foregroundBlur_377_442"/>
</filter>
<filter id="filter19_f_377_442" x="217.133" y="436.858" width="782.785" height="724.051" filterUnits="userSpaceOnUse" color-interpolation-filters="sRGB">
<feFlood flood-opacity="0" result="BackgroundImageFix"/>
<feBlend mode="normal" in="SourceGraphic" in2="BackgroundImageFix" result="shape"/>
<feGaussianBlur stdDeviation="31" result="effect1_foregroundBlur_377_442"/>
</filter>
<filter id="filter20_f_377_442" x="148.616" y="495.358" width="851.842" height="628.176" filterUnits="userSpaceOnUse" color-interpolation-filters="sRGB">
<feFlood flood-opacity="0" result="BackgroundImageFix"/>
<feBlend mode="normal" in="SourceGraphic" in2="BackgroundImageFix" result="shape"/>
<feGaussianBlur stdDeviation="42" result="effect1_foregroundBlur_377_442"/>
</filter>
<filter id="filter21_f_377_442" x="751.175" y="-463.925" width="673.6" height="899.328" filterUnits="userSpaceOnUse" color-interpolation-filters="sRGB">
<feFlood flood-opacity="0" result="BackgroundImageFix"/>
<feBlend mode="normal" in="SourceGraphic" in2="BackgroundImageFix" result="shape"/>
<feGaussianBlur stdDeviation="58.7975" result="effect1_foregroundBlur_377_442"/>
</filter>
<filter id="filter22_f_377_442" x="1052.96" y="-73.0262" width="377.012" height="458.633" filterUnits="userSpaceOnUse" color-interpolation-filters="sRGB">
<feFlood flood-opacity="0" result="BackgroundImageFix"/>
<feBlend mode="normal" in="SourceGraphic" in2="BackgroundImageFix" result="shape"/>
<feGaussianBlur stdDeviation="2.3519" result="effect1_foregroundBlur_377_442"/>
</filter>
<filter id="filter23_f_377_442" x="947.642" y="-112.301" width="493.856" height="537.3" filterUnits="userSpaceOnUse" color-interpolation-filters="sRGB">
<feFlood flood-opacity="0" result="BackgroundImageFix"/>
<feBlend mode="normal" in="SourceGraphic" in2="BackgroundImageFix" result="shape"/>
<feGaussianBlur stdDeviation="8.23164" result="effect1_foregroundBlur_377_442"/>
</filter>
<filter id="filter24_f_377_442" x="824.41" y="-207.543" width="616.41" height="683.008" filterUnits="userSpaceOnUse" color-interpolation-filters="sRGB">
<feFlood flood-opacity="0" result="BackgroundImageFix"/>
<feBlend mode="normal" in="SourceGraphic" in2="BackgroundImageFix" result="shape"/>
<feGaussianBlur stdDeviation="11.7595" result="effect1_foregroundBlur_377_442"/>
</filter>
<filter id="filter25_f_377_442" x="808.056" y="-324.077" width="619.524" height="799.61" filterUnits="userSpaceOnUse" color-interpolation-filters="sRGB">
<feFlood flood-opacity="0" result="BackgroundImageFix"/>
<feBlend mode="normal" in="SourceGraphic" in2="BackgroundImageFix" result="shape"/>
<feGaussianBlur stdDeviation="31.7506" result="effect1_foregroundBlur_377_442"/>
</filter>
<filter id="filter26_f_377_442" x="654.626" y="-497.097" width="818.867" height="1010.19" filterUnits="userSpaceOnUse" color-interpolation-filters="sRGB">
<feFlood flood-opacity="0" result="BackgroundImageFix"/>
<feBlend mode="normal" in="SourceGraphic" in2="BackgroundImageFix" result="shape"/>
<feGaussianBlur stdDeviation="78.7886" result="effect1_foregroundBlur_377_442"/>
</filter>
<filter id="filter27_f_377_442" x="770.802" y="-228.638" width="644.534" height="753.696" filterUnits="userSpaceOnUse" color-interpolation-filters="sRGB">
<feFlood flood-opacity="0" result="BackgroundImageFix"/>
<feBlend mode="normal" in="SourceGraphic" in2="BackgroundImageFix" result="shape"/>
<feGaussianBlur stdDeviation="36.4544" result="effect1_foregroundBlur_377_442"/>
</filter>
<filter id="filter28_f_377_442" x="820.365" y="-401.209" width="603.88" height="759.854" filterUnits="userSpaceOnUse" color-interpolation-filters="sRGB">
<feFlood flood-opacity="0" result="BackgroundImageFix"/>
<feBlend mode="normal" in="SourceGraphic" in2="BackgroundImageFix" result="shape"/>
<feGaussianBlur stdDeviation="39.9823" result="effect1_foregroundBlur_377_442"/>
</filter>
<filter id="filter29_f_377_442" x="760.038" y="14.2551" width="378.183" height="355.244" filterUnits="userSpaceOnUse" color-interpolation-filters="sRGB">
<feFlood flood-opacity="0" result="BackgroundImageFix"/>
<feBlend mode="normal" in="SourceGraphic" in2="BackgroundImageFix" result="shape"/>
<feGaussianBlur stdDeviation="2.3519" result="effect1_foregroundBlur_377_442"/>
</filter>
<filter id="filter30_f_377_442" x="731.629" y="-84.4639" width="446.34" height="466" filterUnits="userSpaceOnUse" color-interpolation-filters="sRGB">
<feFlood flood-opacity="0" result="BackgroundImageFix"/>
<feBlend mode="normal" in="SourceGraphic" in2="BackgroundImageFix" result="shape"/>
<feGaussianBlur stdDeviation="8.23164" result="effect1_foregroundBlur_377_442"/>
</filter>
<filter id="filter31_f_377_442" x="689.023" y="-272.672" width="581.787" height="634.113" filterUnits="userSpaceOnUse" color-interpolation-filters="sRGB">
<feFlood flood-opacity="0" result="BackgroundImageFix"/>
<feBlend mode="normal" in="SourceGraphic" in2="BackgroundImageFix" result="shape"/>
<feGaussianBlur stdDeviation="11.7595" result="effect1_foregroundBlur_377_442"/>
</filter>
<filter id="filter32_f_377_442" x="619.666" y="-257.11" width="758.676" height="633.399" filterUnits="userSpaceOnUse" color-interpolation-filters="sRGB">
<feFlood flood-opacity="0" result="BackgroundImageFix"/>
<feBlend mode="normal" in="SourceGraphic" in2="BackgroundImageFix" result="shape"/>
<feGaussianBlur stdDeviation="31.7506" result="effect1_foregroundBlur_377_442"/>
</filter>
<filter id="filter33_f_377_442" x="612.773" y="-372.304" width="932.084" height="819.643" filterUnits="userSpaceOnUse" color-interpolation-filters="sRGB">
<feFlood flood-opacity="0" result="BackgroundImageFix"/>
<feBlend mode="normal" in="SourceGraphic" in2="BackgroundImageFix" result="shape"/>
<feGaussianBlur stdDeviation="78.7886" result="effect1_foregroundBlur_377_442"/>
</filter>
<filter id="filter34_f_377_442" x="650.362" y="-298.509" width="654.506" height="654.106" filterUnits="userSpaceOnUse" color-interpolation-filters="sRGB">
<feFlood flood-opacity="0" result="BackgroundImageFix"/>
<feBlend mode="normal" in="SourceGraphic" in2="BackgroundImageFix" result="shape"/>
<feGaussianBlur stdDeviation="36.4544" result="effect1_foregroundBlur_377_442"/>
</filter>
<filter id="filter35_f_377_442" x="761.118" y="-349.162" width="388.734" height="396.842" filterUnits="userSpaceOnUse" color-interpolation-filters="sRGB">
<feFlood flood-opacity="0" result="BackgroundImageFix"/>
<feBlend mode="normal" in="SourceGraphic" in2="BackgroundImageFix" result="shape"/>
<feGaussianBlur stdDeviation="2.3519" result="effect1_foregroundBlur_377_442"/>
</filter>
<filter id="filter36_f_377_442" x="751.515" y="-356.433" width="487.762" height="535.304" filterUnits="userSpaceOnUse" color-interpolation-filters="sRGB">
<feFlood flood-opacity="0" result="BackgroundImageFix"/>
<feBlend mode="normal" in="SourceGraphic" in2="BackgroundImageFix" result="shape"/>
<feGaussianBlur stdDeviation="8.23164" result="effect1_foregroundBlur_377_442"/>
</filter>
<filter id="filter37_f_377_442" x="748.632" y="-372.601" width="617.283" height="657.464" filterUnits="userSpaceOnUse" color-interpolation-filters="sRGB">
<feFlood flood-opacity="0" result="BackgroundImageFix"/>
<feBlend mode="normal" in="SourceGraphic" in2="BackgroundImageFix" result="shape"/>
<feGaussianBlur stdDeviation="11.7595" result="effect1_foregroundBlur_377_442"/>
</filter>
<filter id="filter38_f_377_442" x="721.655" y="-414.712" width="598.095" height="778.907" filterUnits="userSpaceOnUse" color-interpolation-filters="sRGB">
<feFlood flood-opacity="0" result="BackgroundImageFix"/>
<feBlend mode="normal" in="SourceGraphic" in2="BackgroundImageFix" result="shape"/>
<feGaussianBlur stdDeviation="31.7506" result="effect1_foregroundBlur_377_442"/>
</filter>
<filter id="filter39_f_377_442" x="641.617" y="-456.614" width="854.412" height="1007.74" filterUnits="userSpaceOnUse" color-interpolation-filters="sRGB">
<feFlood flood-opacity="0" result="BackgroundImageFix"/>
<feBlend mode="normal" in="SourceGraphic" in2="BackgroundImageFix" result="shape"/>
<feGaussianBlur stdDeviation="78.7886" result="effect1_foregroundBlur_377_442"/>
</filter>
<filter id="filter40_f_377_442" x="760.356" y="-396.585" width="637.362" height="668.472" filterUnits="userSpaceOnUse" color-interpolation-filters="sRGB">
<feFlood flood-opacity="0" result="BackgroundImageFix"/>
<feBlend mode="normal" in="SourceGraphic" in2="BackgroundImageFix" result="shape"/>
<feGaussianBlur stdDeviation="36.4544" result="effect1_foregroundBlur_377_442"/>
</filter>
<filter id="filter41_f_377_442" x="786.462" y="-405.763" width="569.741" height="739.303" filterUnits="userSpaceOnUse" color-interpolation-filters="sRGB">
<feFlood flood-opacity="0" result="BackgroundImageFix"/>
<feBlend mode="normal" in="SourceGraphic" in2="BackgroundImageFix" result="shape"/>
<feGaussianBlur stdDeviation="49.3899" result="effect1_foregroundBlur_377_442"/>
</filter>
<linearGradient id="paint0_linear_377_442" x1="549.322" y1="365.783" x2="549.322" y2="1206.57" gradientUnits="userSpaceOnUse">
<stop stop-color="#008C79"/>
<stop offset="1" stop-color="#00B9AE"/>
</linearGradient>
<linearGradient id="paint1_linear_377_442" x1="340.523" y1="651.988" x2="6.68295" y2="892.493" gradientUnits="userSpaceOnUse">
<stop stop-color="#C4C4C4"/>
<stop offset="1" stop-color="#C4C4C4" stop-opacity="0"/>
</linearGradient>
<linearGradient id="paint2_linear_377_442" x1="363.042" y1="379.617" x2="334.616" y2="945.92" gradientUnits="userSpaceOnUse">
<stop stop-color="#C4C4C4"/>
<stop offset="1" stop-color="#C4C4C4" stop-opacity="0"/>
</linearGradient>
<linearGradient id="paint3_linear_377_442" x1="56.5925" y1="602.387" x2="618.117" y2="647.87" gradientUnits="userSpaceOnUse">
<stop stop-color="#005955"/>
<stop offset="1" stop-color="#00B9AE"/>
</linearGradient>
<linearGradient id="paint4_linear_377_442" x1="57.0867" y1="575.72" x2="618.382" y2="621.185" gradientUnits="userSpaceOnUse">
<stop stop-color="#005955"/>
<stop offset="1" stop-color="#00B9AE"/>
</linearGradient>
<linearGradient id="paint5_linear_377_442" x1="22.2906" y1="630.798" x2="651.393" y2="681.756" gradientUnits="userSpaceOnUse">
<stop stop-color="#005955"/>
<stop offset="1" stop-color="#00B9AE"/>
</linearGradient>
<linearGradient id="paint6_linear_377_442" x1="-31.0479" y1="704.149" x2="761.923" y2="768.38" gradientUnits="userSpaceOnUse">
<stop stop-color="#005955"/>
<stop offset="1" stop-color="#00B9AE"/>
</linearGradient>
<linearGradient id="paint7_linear_377_442" x1="15.2251" y1="718.031" x2="860.935" y2="786.533" gradientUnits="userSpaceOnUse">
<stop stop-color="#005955"/>
<stop offset="1" stop-color="#00B9AE"/>
</linearGradient>
<linearGradient id="paint8_linear_377_442" x1="85.6904" y1="784.339" x2="959.653" y2="855.13" gradientUnits="userSpaceOnUse">
<stop stop-color="#005955"/>
<stop offset="1" stop-color="#00B9AE"/>
</linearGradient>
<linearGradient id="paint9_linear_377_442" x1="-36.4835" y1="747.855" x2="728.234" y2="809.797" gradientUnits="userSpaceOnUse">
<stop stop-color="#005955"/>
<stop offset="1" stop-color="#00B9AE"/>
</linearGradient>
<linearGradient id="paint10_linear_377_442" x1="228.349" y1="751.235" x2="282.63" y2="1139.97" gradientUnits="userSpaceOnUse">
<stop stop-color="#C4C4C4"/>
<stop offset="0.943414" stop-color="#C4C4C4" stop-opacity="0"/>
</linearGradient>
<linearGradient id="paint11_linear_377_442" x1="191.79" y1="947.955" x2="662.901" y2="965.951" gradientUnits="userSpaceOnUse">
<stop stop-color="#C4C4C4"/>
<stop offset="1" stop-color="#C4C4C4" stop-opacity="0"/>
</linearGradient>
<linearGradient id="paint12_linear_377_442" x1="823.393" y1="1167.72" x2="286.001" y2="570.456" gradientUnits="userSpaceOnUse">
<stop stop-color="#C4C4C4"/>
<stop offset="1" stop-color="#C4C4C4" stop-opacity="0"/>
</linearGradient>
<linearGradient id="paint13_linear_377_442" x1="247.784" y1="805.076" x2="906.869" y2="858.462" gradientUnits="userSpaceOnUse">
<stop offset="0.213542" stop-color="#005955"/>
<stop offset="0.567708" stop-color="#00B9AE"/>
<stop offset="0.9375" stop-color="#666666"/>
</linearGradient>
<linearGradient id="paint14_linear_377_442" x1="1194.49" y1="152.585" x2="1001.27" y2="420.583" gradientUnits="userSpaceOnUse">
<stop stop-color="#C4C4C4"/>
<stop offset="1" stop-color="#C4C4C4" stop-opacity="0"/>
</linearGradient>
<linearGradient id="paint15_linear_377_442" x1="1418.36" y1="138.298" x2="953.175" y2="152.392" gradientUnits="userSpaceOnUse">
<stop stop-color="#C4C4C4"/>
<stop offset="1" stop-color="#C4C4C4" stop-opacity="0"/>
</linearGradient>
<linearGradient id="paint16_linear_377_442" x1="1111.12" y1="240.005" x2="793.935" y2="187.025" gradientUnits="userSpaceOnUse">
<stop stop-color="#C4C4C4"/>
<stop offset="0.943414" stop-color="#C4C4C4" stop-opacity="0"/>
</linearGradient>
<linearGradient id="paint17_linear_377_442" x1="949.08" y1="266.372" x2="941.235" y2="-106.375" gradientUnits="userSpaceOnUse">
<stop stop-color="#C4C4C4"/>
<stop offset="1" stop-color="#C4C4C4" stop-opacity="0"/>
</linearGradient>
<linearGradient id="paint18_linear_377_442" x1="779.637" y1="-235.925" x2="1243.69" y2="214.036" gradientUnits="userSpaceOnUse">
<stop stop-color="#C4C4C4"/>
<stop offset="1" stop-color="#C4C4C4" stop-opacity="0"/>
</linearGradient>
</defs>
</svg>
